<!DOCTYPE svg PUBLIC "-//W3C//DTD SVG 20010904//EN" "http://www.w3.org/TR/2001/REC-SVG-20010904/DTD/svg10.dtd">
<svg version="1.0" xmlns="http://www.w3.org/2000/svg" width="200px" height="200px" viewBox="0 0 2000 2000" preserveAspectRatio="xMidYMid meet">
<g id="layer101" fill="#48d48e" stroke="none">
 <path d="M477 904 c-17 -17 -3 -54 60 -163 76 -133 90 -151 113 -151 25 0 185 279 172 300 -7 12 -40 16 -174 18 -90 1 -167 -1 -171 -4z m222 -121 c-17 -32 -37 -66 -42 -75 -12 -18 -8 -23 -70 85 l-28 47 87 0 86 0 -33 -57z"/>
 </g>
<g id="layer102" fill="#7796f2" stroke="none">
 <path d="M117 1284 c-4 -4 -7 -76 -7 -160 0 -129 2 -153 16 -158 23 -9 277 -7 292 2 9 7 12 46 10 163 l-3 154 -151 3 c-82 1 -153 -1 -157 -4z m253 -154 l0 -100 -100 0 -100 0 0 100 0 100 100 0 100 0 0 -100z"/>
 </g>
<g id="layer103" fill="#b1b1b1" stroke="none">
 <path d="M476 1412 c-3 -6 -4 -47 -1 -93 4 -86 11 -99 54 -99 24 0 24 1 17 76 l-7 77 31 -7 c29 -5 31 -4 28 22 -3 25 -6 27 -60 30 -31 2 -59 -1 -62 -6z"/>
 <path d="M618 1413 c-1 -4 -2 -38 -2 -76 -1 -55 2 -68 17 -73 18 -6 24 -24 7 -24 -17 0 -11 -37 6 -44 23 -9 54 3 54 20 0 8 -7 17 -15 20 -12 5 -13 10 -4 20 7 9 8 28 3 56 -4 24 -8 57 -8 73 -1 25 -5 31 -28 33 -16 2 -29 0 -30 -5z"/>
 <path d="M715 1410 c-3 -5 -4 -40 -1 -77 4 -57 8 -69 26 -77 15 -7 28 -6 41 2 14 9 25 10 40 2 26 -14 59 -3 59 19 0 10 -3 46 -6 80 -7 60 -8 62 -33 59 -25 -3 -26 -5 -24 -63 l2 -60 -25 28 c-15 18 -24 40 -24 63 0 29 -3 34 -24 34 -14 0 -28 -4 -31 -10z"/>
 <path d="M905 1401 c-3 -11 -1 -47 5 -79 6 -33 7 -67 4 -77 -8 -20 10 -35 43 -35 30 0 34 11 24 64 -8 46 -8 46 10 30 11 -9 19 -23 19 -30 0 -15 35 -28 50 -19 16 10 12 46 -7 67 -17 19 -17 21 0 50 24 41 22 48 -13 48 -23 0 -33 -6 -42 -25 -14 -31 -35 -33 -34 -2 1 31 -49 38 -59 8z"/>
 <path d="M694 1185 c-11 -27 3 -43 33 -39 24 4 25 3 7 -5 -17 -7 -23 -21 -27 -63 -3 -29 -7 -62 -9 -73 -2 -15 3 -20 21 -20 28 0 37 15 47 70 6 37 7 38 15 16 5 -13 11 -38 12 -55 2 -25 7 -32 29 -34 38 -5 44 26 18 102 -27 83 -57 116 -105 116 -22 0 -38 -6 -41 -15z"/>
 <path d="M1387 1193 c-4 -3 -7 -17 -7 -29 0 -20 4 -22 34 -17 18 3 36 1 39 -4 4 -6 -4 -8 -18 -5 -31 5 -51 -10 -58 -45 -13 -70 42 -120 119 -108 l44 6 0 47 c0 56 -29 123 -61 146 -23 16 -80 22 -92 9z m87 -119 c9 -23 7 -54 -2 -54 -17 0 -44 39 -39 55 8 20 33 19 41 -1z"/>
 <path d="M490 1131 c-6 -13 -7 -36 0 -71 5 -29 7 -63 4 -76 -5 -19 -1 -24 20 -30 44 -11 59 1 52 41 -7 33 -5 35 20 35 24 0 26 -2 20 -34 -7 -37 3 -46 51 -46 26 0 26 0 18 58 -5 31 -9 74 -9 95 0 31 -4 39 -22 43 -33 8 -44 -2 -44 -42 0 -30 -3 -34 -26 -34 -24 0 -26 3 -22 35 3 23 -1 36 -10 40 -25 9 -41 5 -52 -14z"/>
 <path d="M886 1134 c-9 -8 -16 -32 -16 -53 0 -48 39 -91 82 -91 24 0 29 -3 24 -17 -8 -20 10 -33 48 -33 26 0 28 2 22 33 -3 17 -9 63 -12 100 -7 72 -21 90 -54 69 -10 -6 -22 -7 -31 -1 -21 13 -46 11 -63 -7z m85 -77 c3 -20 3 -37 0 -37 -22 1 -51 47 -44 68 10 27 38 7 44 -31z"/>
 <path d="M1066 1142 c-3 -5 -4 -41 -3 -80 2 -79 5 -82 87 -79 30 2 35 6 38 29 3 22 -2 29 -23 34 -31 8 -49 38 -41 69 4 16 1 25 -10 29 -22 8 -42 7 -48 -2z"/>
 <path d="M1213 1124 c-21 -21 -24 -32 -20 -61 12 -72 80 -104 137 -63 41 30 42 80 1 121 -38 38 -82 39 -118 3z m83 -48 c-3 -11 -6 -29 -6 -40 0 -15 -3 -16 -15 -6 -21 17 -28 49 -15 65 17 20 43 7 36 -19z"/>
 <path d="M1600 1143 c-43 -15 -53 -83 -20 -126 22 -28 74 -43 109 -32 26 8 29 56 5 76 -14 11 -14 13 0 21 21 12 20 24 -4 48 -19 19 -58 25 -90 13z m58 -51 c2 -7 -5 -12 -17 -12 -14 0 -19 5 -14 15 6 17 25 15 31 -3z m-3 -53 c11 -17 -1 -21 -15 -4 -8 9 -8 15 -2 15 6 0 14 -5 17 -11z"/>
 <path d="M1736 1141 c-3 -5 -5 -41 -3 -80 2 -67 4 -72 26 -78 13 -3 32 -1 41 5 10 6 22 7 31 1 22 -14 57 -10 67 7 5 9 4 43 -2 82 -11 62 -13 67 -36 67 -24 0 -25 -2 -23 -60 l2 -60 -25 29 c-18 21 -25 38 -22 57 3 18 -1 30 -10 34 -20 8 -40 6 -46 -4z"/>
 </g>
<g id="layer104" fill="#ff9ef9" stroke="none">
 <path d="M190 908 c-64 -33 -90 -76 -90 -152 0 -74 29 -125 90 -156 122 -62 253 19 253 157 0 131 -134 211 -253 151z m150 -75 c62 -56 45 -145 -34 -178 -42 -18 -78 -9 -113 27 -22 23 -28 38 -28 74 0 39 5 50 33 75 44 39 99 40 142 2z"/>
 </g>

</svg>